<svg id="svg" xmlns="http://www.w3.org/2000/svg" xmlns:xlink="http://www.w3.org/1999/xlink" width="400" height="400" viewBox="0, 0, 400,400"><g id="svgg"><path id="path0" d="M187.700 9.472 C 184.377 9.559,182.000 9.784,182.000 10.011 C 182.000 10.228,180.677 10.400,179.000 10.400 C 177.350 10.400,176.000 10.558,176.000 10.752 C 176.000 10.946,173.930 11.233,171.399 11.392 C 168.869 11.550,166.698 11.841,166.576 12.040 C 166.453 12.238,165.643 12.400,164.776 12.400 C 163.909 12.400,163.200 12.554,163.200 12.743 C 163.200 12.931,161.923 13.204,160.362 13.349 C 158.801 13.494,157.193 13.790,156.788 14.006 C 156.384 14.223,155.501 14.400,154.826 14.400 C 154.152 14.400,153.600 14.561,153.600 14.758 C 153.600 14.955,152.925 15.213,152.100 15.332 C 149.490 15.707,146.400 16.546,146.400 16.879 C 146.400 17.056,145.950 17.200,145.400 17.200 C 144.850 17.200,144.400 17.357,144.400 17.548 C 144.400 17.740,143.320 18.019,142.000 18.168 C 140.680 18.318,139.600 18.611,139.600 18.820 C 139.600 19.029,139.150 19.200,138.600 19.200 C 138.050 19.200,137.600 19.360,137.600 19.555 C 137.600 19.750,136.790 20.031,135.800 20.179 C 134.810 20.328,134.000 20.618,134.000 20.825 C 134.000 21.031,133.550 21.200,133.000 21.200 C 132.450 21.200,132.000 21.357,132.000 21.549 C 132.000 21.741,131.280 22.013,130.400 22.154 C 129.520 22.294,128.800 22.587,128.800 22.805 C 128.800 23.022,128.350 23.200,127.800 23.200 C 127.250 23.200,126.800 23.358,126.800 23.550 C 126.800 23.743,126.216 24.017,125.503 24.159 C 123.857 24.489,122.000 25.304,122.000 25.698 C 122.000 25.864,121.821 26.000,121.603 26.000 C 120.941 26.000,118.000 27.368,118.000 27.676 C 118.000 27.834,117.370 28.082,116.600 28.226 C 115.830 28.371,115.200 28.649,115.200 28.845 C 115.200 29.040,114.750 29.200,114.200 29.200 C 113.650 29.200,113.200 29.381,113.200 29.601 C 113.200 29.822,112.480 30.314,111.600 30.696 C 110.720 31.077,110.000 31.526,110.000 31.694 C 110.000 31.862,109.640 32.000,109.200 32.000 C 108.760 32.000,108.400 32.166,108.400 32.368 C 108.400 32.571,107.860 32.855,107.200 33.000 C 106.540 33.145,106.000 33.429,106.000 33.632 C 106.000 33.834,105.659 34.000,105.243 34.000 C 104.826 34.000,104.382 34.270,104.255 34.600 C 104.129 34.930,103.659 35.200,103.213 35.200 C 102.766 35.200,102.400 35.380,102.400 35.600 C 102.400 35.820,102.130 36.000,101.800 36.000 C 101.470 36.000,101.200 36.177,101.200 36.392 C 101.200 36.608,100.750 36.898,100.200 37.036 C 99.650 37.174,99.200 37.447,99.200 37.643 C 99.200 37.840,98.930 38.000,98.600 38.000 C 98.270 38.000,98.000 38.168,98.000 38.373 C 98.000 38.578,97.595 38.874,97.100 39.030 C 96.605 39.187,95.930 39.623,95.600 40.000 C 95.270 40.377,94.595 40.813,94.100 40.970 C 93.605 41.126,93.200 41.401,93.200 41.580 C 93.200 41.760,92.885 42.021,92.500 42.160 C 91.318 42.587,89.996 43.454,89.163 44.348 C 88.726 44.816,88.146 45.200,87.873 45.200 C 87.600 45.200,87.117 45.560,86.800 46.000 C 86.483 46.440,86.070 46.800,85.883 46.800 C 85.696 46.800,85.292 47.025,84.985 47.300 C 83.752 48.406,83.221 48.800,82.964 48.800 C 82.816 48.800,82.100 49.430,81.374 50.200 C 80.648 50.970,79.869 51.600,79.643 51.600 C 79.417 51.600,78.498 52.320,77.600 53.200 C 76.702 54.080,75.817 54.800,75.634 54.800 C 75.450 54.800,74.119 55.970,72.674 57.400 C 71.230 58.830,69.933 60.000,69.792 60.000 C 69.451 60.000,58.800 70.629,58.800 70.969 C 58.800 71.115,57.720 72.328,56.400 73.664 C 55.080 75.001,54.000 76.246,54.000 76.431 C 54.000 76.616,53.280 77.502,52.400 78.400 C 51.520 79.298,50.800 80.208,50.800 80.423 C 50.800 80.638,50.170 81.426,49.400 82.174 C 48.630 82.921,48.000 83.697,48.000 83.897 C 48.000 84.097,47.550 84.683,47.000 85.200 C 46.450 85.717,46.000 86.297,46.000 86.489 C 46.000 86.681,45.595 87.236,45.100 87.722 C 44.187 88.619,43.414 89.712,42.925 90.800 C 42.777 91.130,42.354 91.670,41.985 92.000 C 41.616 92.330,41.187 93.005,41.030 93.500 C 40.874 93.995,40.578 94.400,40.373 94.400 C 40.168 94.400,40.000 94.741,40.000 95.157 C 40.000 95.574,39.730 96.018,39.400 96.145 C 39.070 96.271,38.800 96.728,38.800 97.160 C 38.800 97.595,38.442 98.060,38.000 98.200 C 37.558 98.340,37.200 98.805,37.200 99.240 C 37.200 99.672,36.930 100.129,36.600 100.255 C 36.270 100.382,36.000 100.826,36.000 101.243 C 36.000 101.659,35.840 102.000,35.643 102.000 C 35.447 102.000,35.174 102.450,35.036 103.000 C 34.898 103.550,34.608 104.000,34.392 104.000 C 34.177 104.000,34.000 104.270,34.000 104.600 C 34.000 104.930,33.828 105.200,33.618 105.200 C 33.408 105.200,33.118 105.830,32.974 106.600 C 32.829 107.370,32.551 108.000,32.355 108.000 C 32.160 108.000,32.000 108.270,32.000 108.600 C 32.000 108.930,31.865 109.201,31.700 109.203 C 31.298 109.206,30.000 111.519,30.000 112.232 C 30.000 112.545,29.820 112.800,29.600 112.800 C 29.380 112.800,29.200 113.070,29.200 113.400 C 29.200 113.730,29.034 114.000,28.832 114.000 C 28.629 114.000,28.337 114.585,28.182 115.300 C 28.026 116.015,27.787 116.690,27.650 116.800 C 27.078 117.258,26.000 119.585,26.000 120.362 C 26.000 120.823,25.820 121.200,25.600 121.200 C 25.380 121.200,25.200 121.560,25.200 122.000 C 25.200 122.440,25.028 122.800,24.818 122.800 C 24.608 122.800,24.318 123.430,24.174 124.200 C 24.029 124.970,23.751 125.600,23.555 125.600 C 23.360 125.600,23.200 126.050,23.200 126.600 C 23.200 127.150,23.028 127.600,22.818 127.600 C 22.608 127.600,22.312 128.275,22.160 129.100 C 22.009 129.925,21.776 130.690,21.642 130.800 C 21.063 131.278,20.396 132.887,20.156 134.383 C 20.014 135.272,19.741 136.000,19.549 136.000 C 19.357 136.000,19.200 136.450,19.200 137.000 C 19.200 137.550,19.026 138.000,18.814 138.000 C 18.601 138.000,18.308 138.900,18.162 140.000 C 18.016 141.100,17.740 142.000,17.548 142.000 C 17.357 142.000,17.200 142.540,17.200 143.200 C 17.200 143.860,17.063 144.400,16.895 144.400 C 16.608 144.400,15.758 147.241,15.310 149.700 C 15.199 150.305,14.950 150.800,14.755 150.800 C 14.560 150.800,14.400 151.419,14.400 152.176 C 14.400 152.933,14.230 153.658,14.023 153.786 C 13.816 153.914,13.523 155.274,13.372 156.809 C 13.220 158.344,12.940 159.600,12.748 159.600 C 12.557 159.600,12.400 160.219,12.400 160.976 C 12.400 161.733,12.237 162.454,12.037 162.577 C 11.838 162.700,11.546 164.511,11.390 166.601 C 11.233 168.690,10.946 170.400,10.752 170.400 C 10.559 170.400,10.400 171.264,10.400 172.320 C 10.400 173.376,10.230 174.411,10.022 174.620 C 9.814 174.829,9.516 178.021,9.361 181.714 C 9.206 185.407,8.926 188.522,8.739 188.638 C 8.297 188.911,8.295 212.800,8.737 212.800 C 8.923 212.800,9.197 215.905,9.345 219.700 C 9.498 223.595,9.787 226.658,10.008 226.733 C 10.224 226.807,10.400 227.932,10.400 229.233 C 10.400 230.535,10.557 231.600,10.748 231.600 C 10.940 231.600,11.224 233.220,11.378 235.200 C 11.533 237.180,11.827 238.800,12.030 238.800 C 12.234 238.800,12.400 239.610,12.400 240.600 C 12.400 241.590,12.547 242.400,12.726 242.400 C 12.906 242.400,13.255 243.615,13.503 245.100 C 14.215 249.368,14.469 250.400,14.803 250.400 C 14.975 250.400,15.210 251.075,15.325 251.900 C 15.615 253.989,16.540 257.474,16.900 257.834 C 17.065 257.998,17.200 258.553,17.200 259.067 C 17.200 259.580,17.363 260.000,17.562 260.000 C 17.762 260.000,18.049 260.900,18.200 262.000 C 18.351 263.100,18.638 264.000,18.838 264.000 C 19.037 264.000,19.200 264.450,19.200 265.000 C 19.200 265.550,19.357 266.000,19.549 266.000 C 19.741 266.000,20.013 266.720,20.154 267.600 C 20.294 268.480,20.587 269.200,20.805 269.200 C 21.022 269.200,21.200 269.650,21.200 270.200 C 21.200 270.750,21.366 271.200,21.568 271.200 C 21.771 271.200,22.056 271.785,22.202 272.500 C 22.531 274.111,23.311 276.000,23.647 276.000 C 23.785 276.000,24.013 276.720,24.154 277.600 C 24.294 278.480,24.587 279.200,24.805 279.200 C 25.022 279.200,25.200 279.560,25.200 280.000 C 25.200 280.440,25.366 280.800,25.568 280.800 C 25.771 280.800,26.055 281.340,26.200 282.000 C 26.345 282.660,26.629 283.200,26.832 283.200 C 27.034 283.200,27.200 283.560,27.200 284.000 C 27.200 284.440,27.366 284.800,27.568 284.800 C 27.771 284.800,28.055 285.340,28.200 286.000 C 28.345 286.660,28.629 287.200,28.832 287.200 C 29.034 287.200,29.200 287.560,29.200 288.000 C 29.200 288.440,29.380 288.800,29.600 288.800 C 29.820 288.800,30.000 288.979,30.000 289.197 C 30.000 289.880,31.373 292.800,31.694 292.800 C 31.862 292.800,32.000 293.070,32.000 293.400 C 32.000 293.730,32.180 294.000,32.400 294.000 C 32.620 294.000,32.800 294.366,32.800 294.813 C 32.800 295.259,33.070 295.729,33.400 295.855 C 33.730 295.982,34.000 296.426,34.000 296.843 C 34.000 297.259,34.160 297.600,34.357 297.600 C 34.553 297.600,34.835 298.084,34.983 298.676 C 35.132 299.268,35.576 300.033,35.970 300.376 C 36.363 300.719,36.813 301.405,36.970 301.900 C 37.126 302.395,37.422 302.800,37.627 302.800 C 37.832 302.800,38.000 303.070,38.000 303.400 C 38.000 303.730,38.180 304.000,38.400 304.000 C 38.620 304.000,38.800 304.338,38.800 304.751 C 38.800 305.164,39.070 305.726,39.400 306.000 C 39.730 306.274,40.000 306.746,40.000 307.049 C 40.000 307.352,40.139 307.600,40.309 307.600 C 40.479 307.600,40.957 308.230,41.372 309.000 C 41.787 309.770,42.282 310.400,42.473 310.400 C 42.664 310.400,42.993 310.855,43.204 311.410 C 43.415 311.966,43.861 312.525,44.194 312.653 C 44.527 312.781,44.800 313.201,44.800 313.587 C 44.800 313.972,45.250 314.626,45.800 315.039 C 46.350 315.452,46.800 315.940,46.800 316.124 C 46.800 316.307,47.025 316.708,47.300 317.015 C 48.402 318.243,48.800 318.778,48.800 319.030 C 48.800 319.175,49.520 320.014,50.400 320.894 C 51.280 321.774,52.000 322.669,52.000 322.883 C 52.000 323.096,52.810 324.059,53.800 325.021 C 54.790 325.983,55.600 326.933,55.600 327.132 C 55.600 327.331,57.392 329.272,59.583 331.447 C 64.663 336.490,63.906 335.731,68.945 340.816 C 71.335 343.227,73.448 345.200,73.640 345.200 C 73.832 345.200,74.894 346.100,76.000 347.200 C 77.106 348.300,78.151 349.200,78.322 349.200 C 78.493 349.200,79.301 349.830,80.118 350.600 C 80.934 351.370,81.768 352.000,81.972 352.000 C 82.175 352.000,82.696 352.450,83.129 353.000 C 83.561 353.550,84.123 354.000,84.377 354.000 C 84.631 354.000,85.255 354.450,85.765 355.000 C 86.275 355.550,86.896 356.000,87.146 356.000 C 87.396 356.000,87.600 356.168,87.600 356.373 C 87.600 356.578,87.990 356.870,88.466 357.021 C 88.942 357.172,89.761 357.724,90.284 358.248 C 90.808 358.772,91.432 359.200,91.671 359.200 C 91.910 359.200,92.397 359.534,92.753 359.943 C 93.109 360.351,93.805 360.813,94.300 360.970 C 94.795 361.126,95.200 361.422,95.200 361.627 C 95.200 361.832,95.470 362.000,95.800 362.000 C 96.130 362.000,96.400 362.177,96.400 362.392 C 96.400 362.608,96.850 362.898,97.400 363.036 C 97.950 363.174,98.400 363.447,98.400 363.643 C 98.400 363.840,98.741 364.000,99.157 364.000 C 99.574 364.000,100.018 364.270,100.145 364.600 C 100.271 364.930,100.741 365.200,101.187 365.200 C 101.634 365.200,102.000 365.380,102.000 365.600 C 102.000 365.820,102.270 366.000,102.600 366.000 C 102.930 366.000,103.200 366.177,103.200 366.392 C 103.200 366.608,103.650 366.898,104.200 367.036 C 104.750 367.174,105.200 367.447,105.200 367.643 C 105.200 367.840,105.470 368.000,105.800 368.000 C 106.130 368.000,106.400 368.180,106.400 368.400 C 106.400 368.620,106.760 368.800,107.200 368.800 C 107.640 368.800,108.000 368.980,108.000 369.200 C 108.000 369.420,108.257 369.600,108.571 369.600 C 108.886 369.600,109.381 369.832,109.671 370.115 C 110.295 370.723,112.930 372.000,113.560 372.000 C 113.802 372.000,114.000 372.138,114.000 372.306 C 114.000 372.723,117.017 374.000,118.003 374.000 C 118.441 374.000,118.800 374.180,118.800 374.400 C 118.800 374.620,119.070 374.800,119.400 374.800 C 119.730 374.800,120.000 374.972,120.000 375.182 C 120.000 375.392,120.630 375.682,121.400 375.826 C 122.170 375.971,122.800 376.205,122.800 376.347 C 122.800 376.702,124.735 377.527,126.303 377.841 C 127.016 377.983,127.600 378.257,127.600 378.450 C 127.600 378.642,128.050 378.800,128.600 378.800 C 129.150 378.800,129.600 378.978,129.600 379.195 C 129.600 379.413,130.320 379.706,131.200 379.846 C 132.080 379.987,132.800 380.259,132.800 380.451 C 132.800 380.643,133.250 380.800,133.800 380.800 C 134.350 380.800,134.800 380.980,134.800 381.200 C 134.800 381.420,135.178 381.600,135.640 381.600 C 136.101 381.600,137.136 381.888,137.940 382.241 C 140.568 383.394,142.881 384.119,145.700 384.674 C 146.305 384.793,146.800 385.050,146.800 385.245 C 146.800 385.440,147.419 385.600,148.176 385.600 C 148.933 385.600,149.653 385.762,149.776 385.961 C 149.898 386.159,151.079 386.447,152.399 386.600 C 153.720 386.753,154.800 387.041,154.800 387.239 C 154.800 387.438,155.419 387.600,156.176 387.600 C 156.933 387.600,157.652 387.761,157.774 387.958 C 157.896 388.155,159.437 388.444,161.198 388.600 C 162.959 388.756,164.400 389.045,164.400 389.242 C 164.400 389.439,165.285 389.600,166.367 389.600 C 167.448 389.600,168.393 389.771,168.467 389.980 C 168.540 390.189,170.715 390.485,173.300 390.638 C 175.885 390.792,178.000 391.071,178.000 391.259 C 178.000 391.446,179.609 391.600,181.576 391.600 C 183.543 391.600,185.264 391.780,185.400 392.000 C 185.557 392.254,190.804 392.400,199.824 392.400 C 209.008 392.400,214.000 392.259,214.000 392.000 C 214.000 391.761,215.533 391.600,217.800 391.600 C 219.890 391.600,221.600 391.442,221.600 391.248 C 221.600 391.055,223.850 390.766,226.600 390.608 C 229.350 390.449,231.600 390.158,231.600 389.960 C 231.600 389.762,232.500 389.600,233.600 389.600 C 234.700 389.600,235.600 389.439,235.600 389.242 C 235.600 389.045,237.041 388.756,238.802 388.600 C 240.563 388.444,242.104 388.155,242.226 387.958 C 242.348 387.761,242.966 387.600,243.600 387.600 C 244.234 387.600,244.853 387.438,244.976 387.239 C 245.098 387.041,246.279 386.753,247.600 386.600 C 248.921 386.447,250.102 386.159,250.224 385.961 C 250.347 385.762,251.067 385.600,251.824 385.600 C 252.581 385.600,253.200 385.440,253.200 385.245 C 253.200 385.050,253.695 384.788,254.300 384.663 C 256.894 384.127,259.200 383.396,259.200 383.109 C 259.200 382.939,259.650 382.800,260.200 382.800 C 260.750 382.800,261.200 382.637,261.200 382.438 C 261.200 382.238,262.100 381.951,263.200 381.800 C 264.300 381.649,265.200 381.362,265.200 381.162 C 265.200 380.963,265.650 380.800,266.200 380.800 C 266.750 380.800,267.200 380.643,267.200 380.451 C 267.200 380.259,267.920 379.987,268.800 379.846 C 269.680 379.706,270.400 379.413,270.400 379.195 C 270.400 378.978,270.850 378.800,271.400 378.800 C 271.950 378.800,272.400 378.640,272.400 378.445 C 272.400 378.249,273.030 377.971,273.800 377.826 C 274.570 377.682,275.200 377.392,275.200 377.182 C 275.200 376.972,275.650 376.800,276.200 376.800 C 276.750 376.800,277.200 376.640,277.200 376.445 C 277.200 376.249,277.830 375.971,278.600 375.826 C 279.370 375.682,280.000 375.392,280.000 375.182 C 280.000 374.972,280.270 374.800,280.600 374.800 C 280.930 374.800,281.200 374.643,281.200 374.450 C 281.200 374.257,281.784 373.983,282.497 373.841 C 284.143 373.511,286.000 372.696,286.000 372.302 C 286.000 372.136,286.257 372.000,286.571 372.000 C 286.886 372.000,287.381 371.768,287.671 371.485 C 288.295 370.877,290.930 369.600,291.560 369.600 C 291.802 369.600,292.000 369.464,292.000 369.298 C 292.000 369.131,292.585 368.737,293.300 368.422 C 294.015 368.107,294.838 367.613,295.129 367.325 C 295.419 367.036,295.914 366.800,296.229 366.800 C 296.543 366.800,296.800 366.620,296.800 366.400 C 296.800 366.180,297.070 366.000,297.400 366.000 C 297.730 366.000,298.000 365.820,298.000 365.600 C 298.000 365.380,298.366 365.200,298.813 365.200 C 299.259 365.200,299.729 364.930,299.855 364.600 C 299.982 364.270,300.407 364.000,300.800 364.000 C 301.193 364.000,301.618 363.730,301.745 363.400 C 301.871 363.070,302.341 362.800,302.787 362.800 C 303.234 362.800,303.600 362.620,303.600 362.400 C 303.600 362.180,303.870 362.000,304.200 362.000 C 304.530 362.000,304.800 361.832,304.800 361.627 C 304.800 361.422,305.190 361.130,305.666 360.979 C 306.142 360.828,306.961 360.276,307.484 359.752 C 308.008 359.228,308.632 358.800,308.871 358.800 C 309.110 358.800,309.600 358.485,309.959 358.100 C 310.637 357.373,311.767 356.588,312.800 356.127 C 313.130 355.980,313.796 355.441,314.281 354.930 C 314.765 354.418,315.342 354.000,315.562 354.000 C 315.782 354.000,316.573 353.370,317.321 352.600 C 318.069 351.830,318.824 351.200,319.000 351.200 C 319.176 351.200,319.931 350.570,320.679 349.800 C 321.427 349.030,322.207 348.400,322.414 348.400 C 322.620 348.400,323.694 347.500,324.800 346.400 C 325.906 345.300,326.964 344.400,327.152 344.400 C 327.340 344.400,329.272 342.608,331.447 340.417 C 333.621 338.227,335.632 336.202,335.915 335.917 C 336.198 335.633,338.133 333.716,340.215 331.659 C 342.297 329.601,344.000 327.765,344.000 327.578 C 344.000 327.391,344.900 326.338,346.000 325.238 C 347.100 324.138,348.000 323.051,348.000 322.823 C 348.000 322.594,348.540 321.891,349.200 321.260 C 349.860 320.629,350.400 319.830,350.400 319.484 C 350.400 319.137,350.751 318.743,351.180 318.606 C 351.608 318.470,352.064 318.029,352.192 317.626 C 352.320 317.223,352.959 316.334,353.612 315.650 C 354.265 314.967,354.800 314.224,354.800 314.001 C 354.800 313.778,355.250 313.203,355.800 312.725 C 356.350 312.247,356.800 311.613,356.800 311.315 C 356.800 311.018,357.070 310.671,357.400 310.545 C 357.730 310.418,358.000 309.993,358.000 309.600 C 358.000 309.207,358.270 308.782,358.600 308.655 C 358.930 308.529,359.200 308.079,359.200 307.655 C 359.200 307.232,359.479 306.779,359.819 306.648 C 360.159 306.517,360.627 305.868,360.858 305.205 C 361.089 304.542,361.441 304.000,361.639 304.000 C 361.838 304.000,362.000 303.730,362.000 303.400 C 362.000 303.070,362.177 302.800,362.392 302.800 C 362.608 302.800,362.898 302.350,363.036 301.800 C 363.174 301.250,363.447 300.800,363.643 300.800 C 363.840 300.800,364.000 300.530,364.000 300.200 C 364.000 299.870,364.177 299.600,364.392 299.600 C 364.608 299.600,364.898 299.150,365.036 298.600 C 365.174 298.050,365.447 297.600,365.643 297.600 C 365.840 297.600,366.000 297.240,366.000 296.800 C 366.000 296.360,366.160 296.000,366.357 296.000 C 366.553 296.000,366.826 295.550,366.964 295.000 C 367.102 294.450,367.392 294.000,367.608 294.000 C 367.823 294.000,368.000 293.730,368.000 293.400 C 368.000 293.070,368.140 292.800,368.312 292.800 C 368.484 292.800,368.973 291.900,369.400 290.800 C 369.827 289.700,370.316 288.800,370.488 288.800 C 370.660 288.800,370.800 288.440,370.800 288.000 C 370.800 287.560,370.966 287.200,371.168 287.200 C 371.371 287.200,371.655 286.660,371.800 286.000 C 371.945 285.340,372.229 284.800,372.432 284.800 C 372.634 284.800,372.800 284.440,372.800 284.000 C 372.800 283.560,372.966 283.200,373.168 283.200 C 373.371 283.200,373.655 282.660,373.800 282.000 C 373.945 281.340,374.229 280.800,374.432 280.800 C 374.634 280.800,374.800 280.440,374.800 280.000 C 374.800 279.560,374.957 279.200,375.149 279.200 C 375.341 279.200,375.613 278.480,375.754 277.600 C 375.894 276.720,376.187 276.000,376.405 276.000 C 376.622 276.000,376.800 275.640,376.800 275.200 C 376.800 274.760,376.957 274.400,377.149 274.400 C 377.341 274.400,377.613 273.680,377.754 272.800 C 377.894 271.920,378.187 271.200,378.405 271.200 C 378.622 271.200,378.800 270.750,378.800 270.200 C 378.800 269.650,378.957 269.200,379.149 269.200 C 379.341 269.200,379.613 268.480,379.754 267.600 C 379.894 266.720,380.187 266.000,380.405 266.000 C 380.622 266.000,380.800 265.561,380.800 265.024 C 380.800 264.487,380.970 263.942,381.177 263.814 C 381.384 263.686,381.675 262.773,381.823 261.786 C 381.971 260.798,382.252 259.892,382.446 259.771 C 382.641 259.651,382.800 259.023,382.800 258.376 C 382.800 257.729,382.960 257.200,383.155 257.200 C 383.350 257.200,383.630 256.394,383.778 255.409 C 383.925 254.424,384.216 253.514,384.423 253.386 C 384.630 253.258,384.800 252.533,384.800 251.776 C 384.800 251.019,384.980 250.400,385.200 250.400 C 385.420 250.400,385.600 249.785,385.600 249.033 C 385.600 248.282,385.775 247.607,385.989 247.533 C 386.203 247.460,386.499 246.095,386.646 244.500 C 386.794 242.905,387.069 241.600,387.257 241.600 C 387.446 241.600,387.600 240.981,387.600 240.224 C 387.600 239.467,387.763 238.746,387.963 238.623 C 388.162 238.500,388.454 236.689,388.610 234.599 C 388.767 232.510,389.054 230.800,389.248 230.800 C 389.441 230.800,389.600 229.846,389.600 228.680 C 389.600 227.514,389.770 226.389,389.977 226.180 C 390.184 225.971,390.481 222.599,390.637 218.686 C 390.793 214.774,391.074 211.478,391.261 211.363 C 391.703 211.089,391.705 190.912,391.262 190.638 C 391.076 190.524,390.799 187.048,390.646 182.915 C 390.492 178.741,390.197 175.341,389.984 175.267 C 389.773 175.193,389.600 174.068,389.600 172.767 C 389.600 171.465,389.443 170.400,389.252 170.400 C 389.060 170.400,388.776 168.780,388.622 166.800 C 388.467 164.820,388.173 163.200,387.970 163.200 C 387.766 163.200,387.600 162.390,387.600 161.400 C 387.600 160.410,387.441 159.600,387.247 159.600 C 387.052 159.600,386.768 158.430,386.615 157.000 C 386.462 155.570,386.171 154.400,385.968 154.400 C 385.766 154.400,385.600 153.770,385.600 153.000 C 385.600 152.230,385.439 151.600,385.242 151.600 C 385.045 151.600,384.787 150.925,384.668 150.100 C 384.293 147.490,383.454 144.400,383.121 144.400 C 382.944 144.400,382.800 143.961,382.800 143.424 C 382.800 142.887,382.637 142.346,382.437 142.223 C 382.238 142.100,381.951 141.099,381.800 140.000 C 381.649 138.900,381.362 138.000,381.162 138.000 C 380.963 138.000,380.800 137.550,380.800 137.000 C 380.800 136.450,380.643 136.000,380.451 136.000 C 380.259 136.000,379.987 135.280,379.846 134.400 C 379.706 133.520,379.413 132.800,379.195 132.800 C 378.978 132.800,378.800 132.350,378.800 131.800 C 378.800 131.250,378.643 130.800,378.451 130.800 C 378.259 130.800,377.987 130.080,377.846 129.200 C 377.706 128.320,377.413 127.600,377.195 127.600 C 376.978 127.600,376.800 127.240,376.800 126.800 C 376.800 126.360,376.643 126.000,376.451 126.000 C 376.259 126.000,375.987 125.280,375.846 124.400 C 375.706 123.520,375.413 122.800,375.195 122.800 C 374.978 122.800,374.800 122.440,374.800 122.000 C 374.800 121.560,374.634 121.200,374.432 121.200 C 374.229 121.200,373.945 120.660,373.800 120.000 C 373.655 119.340,373.371 118.800,373.168 118.800 C 372.966 118.800,372.800 118.350,372.800 117.800 C 372.800 117.250,372.620 116.800,372.400 116.800 C 372.180 116.800,372.000 116.513,372.000 116.162 C 372.000 115.532,370.844 113.188,370.341 112.800 C 370.199 112.690,369.751 111.835,369.347 110.900 C 368.942 109.965,368.474 109.200,368.306 109.200 C 368.138 109.200,368.000 108.930,368.000 108.600 C 368.000 108.270,367.843 108.000,367.650 108.000 C 367.457 108.000,367.187 107.436,367.049 106.746 C 366.911 106.057,366.465 105.202,366.056 104.846 C 365.648 104.491,365.173 103.750,365.000 103.200 C 364.827 102.650,364.363 101.919,363.970 101.576 C 363.576 101.233,363.129 100.456,362.976 99.848 C 362.824 99.241,362.362 98.533,361.950 98.276 C 361.537 98.018,361.200 97.485,361.200 97.091 C 361.200 96.697,360.930 96.271,360.600 96.145 C 360.270 96.018,360.000 95.574,360.000 95.157 C 360.000 94.741,359.861 94.400,359.691 94.400 C 359.521 94.400,359.043 93.770,358.628 93.000 C 358.213 92.230,357.722 91.600,357.537 91.600 C 357.352 91.600,357.200 91.343,357.200 91.029 C 357.200 90.715,356.750 90.104,356.200 89.671 C 355.650 89.239,355.200 88.590,355.200 88.230 C 355.200 87.870,354.930 87.471,354.600 87.345 C 354.270 87.218,353.998 86.909,353.997 86.657 C 353.995 86.406,353.365 85.537,352.597 84.727 C 351.828 83.916,351.200 83.127,351.200 82.973 C 351.200 82.818,350.750 82.275,350.200 81.765 C 349.650 81.255,349.200 80.657,349.200 80.435 C 349.200 80.214,348.480 79.298,347.600 78.400 C 346.720 77.502,346.000 76.629,346.000 76.459 C 346.000 76.289,344.650 74.774,343.000 73.091 C 341.350 71.409,340.000 69.915,340.000 69.772 C 340.000 69.450,332.118 61.600,331.795 61.600 C 331.666 61.600,330.211 60.250,328.561 58.600 C 326.911 56.950,325.383 55.600,325.166 55.600 C 324.948 55.600,323.983 54.790,323.021 53.800 C 322.059 52.810,321.077 52.000,320.839 52.000 C 320.601 52.000,319.891 51.460,319.260 50.800 C 318.629 50.140,317.830 49.600,317.484 49.600 C 317.137 49.600,316.743 49.249,316.606 48.820 C 316.470 48.392,316.053 47.943,315.680 47.822 C 315.306 47.702,314.370 47.063,313.600 46.403 C 312.830 45.742,312.072 45.201,311.916 45.201 C 311.759 45.200,311.274 44.816,310.837 44.348 C 310.004 43.454,308.682 42.587,307.500 42.160 C 307.115 42.021,306.800 41.760,306.800 41.580 C 306.800 41.401,306.395 41.126,305.900 40.970 C 305.405 40.813,304.730 40.377,304.400 40.000 C 304.070 39.623,303.350 39.173,302.800 39.000 C 302.250 38.827,301.530 38.377,301.200 38.000 C 300.870 37.623,300.195 37.187,299.700 37.030 C 299.205 36.874,298.800 36.578,298.800 36.373 C 298.800 36.168,298.530 36.000,298.200 36.000 C 297.870 36.000,297.600 35.843,297.600 35.650 C 297.600 35.458,297.036 35.187,296.346 35.049 C 295.657 34.911,294.791 34.451,294.423 34.026 C 294.054 33.601,293.268 33.132,292.676 32.983 C 292.084 32.835,291.600 32.553,291.600 32.357 C 291.600 32.160,291.240 32.000,290.800 32.000 C 290.360 32.000,290.000 31.862,290.000 31.694 C 290.000 31.373,287.080 30.000,286.397 30.000 C 286.179 30.000,286.000 29.820,286.000 29.600 C 286.000 29.380,285.730 29.200,285.400 29.200 C 285.070 29.200,284.800 29.040,284.800 28.845 C 284.800 28.649,284.170 28.371,283.400 28.226 C 282.630 28.082,282.000 27.834,282.000 27.676 C 282.000 27.368,279.059 26.000,278.397 26.000 C 278.179 26.000,278.000 25.820,278.000 25.600 C 278.000 25.380,277.550 25.200,277.000 25.200 C 276.450 25.200,276.000 25.028,276.000 24.818 C 276.000 24.608,275.370 24.318,274.600 24.174 C 273.830 24.029,273.200 23.751,273.200 23.555 C 273.200 23.360,272.750 23.200,272.200 23.200 C 271.650 23.200,271.200 23.022,271.200 22.805 C 271.200 22.587,270.480 22.294,269.600 22.154 C 268.720 22.013,268.000 21.741,268.000 21.549 C 268.000 21.357,267.550 21.200,267.000 21.200 C 266.450 21.200,266.000 21.031,266.000 20.825 C 266.000 20.618,265.190 20.328,264.200 20.179 C 263.210 20.031,262.400 19.750,262.400 19.555 C 262.400 19.360,261.950 19.200,261.400 19.200 C 260.850 19.200,260.400 19.029,260.400 18.820 C 260.400 18.611,259.320 18.318,258.000 18.168 C 256.680 18.019,255.600 17.740,255.600 17.548 C 255.600 17.357,255.150 17.200,254.600 17.200 C 254.050 17.200,253.600 17.020,253.600 16.800 C 253.600 16.580,253.144 16.400,252.587 16.400 C 252.030 16.400,250.928 16.130,250.138 15.800 C 249.349 15.470,248.184 15.200,247.551 15.200 C 246.918 15.200,246.400 15.020,246.400 14.800 C 246.400 14.580,245.716 14.400,244.880 14.400 C 244.044 14.400,243.185 14.225,242.971 14.011 C 242.757 13.797,241.281 13.502,239.691 13.354 C 238.101 13.206,236.800 12.931,236.800 12.743 C 236.800 12.554,236.091 12.400,235.224 12.400 C 234.357 12.400,233.547 12.238,233.424 12.040 C 233.302 11.841,231.131 11.550,228.601 11.392 C 226.070 11.233,224.000 10.946,224.000 10.752 C 224.000 10.558,222.665 10.400,221.033 10.400 C 219.402 10.400,218.007 10.235,217.933 10.033 C 217.785 9.626,196.699 9.235,187.700 9.472 M210.000 13.997 C 224.856 14.799,235.558 16.586,251.615 20.944 C 254.212 21.649,264.061 24.884,265.800 25.603 C 266.460 25.876,267.360 26.240,267.800 26.412 C 275.889 29.566,289.702 36.255,294.481 39.331 C 295.735 40.139,296.884 40.800,297.033 40.800 C 297.182 40.800,298.181 41.430,299.253 42.200 C 300.325 42.970,301.289 43.600,301.396 43.600 C 301.726 43.600,315.409 53.349,316.000 54.005 C 316.110 54.128,316.723 54.629,317.363 55.121 C 336.652 69.937,356.113 94.286,367.781 118.200 C 373.033 128.965,374.541 132.633,377.564 142.000 C 378.522 144.970,379.452 147.760,379.630 148.200 C 379.926 148.931,381.112 153.420,382.060 157.400 C 387.885 181.835,388.657 212.033,384.038 234.800 C 383.837 235.790,383.468 237.770,383.218 239.200 C 382.969 240.630,382.595 242.340,382.388 243.000 C 382.182 243.660,381.634 245.730,381.171 247.600 C 379.048 256.172,377.279 261.531,373.312 271.400 C 370.752 277.770,364.777 290.185,363.218 292.375 C 362.768 293.006,362.400 293.633,362.400 293.766 C 362.400 294.709,353.298 308.441,348.856 314.200 C 342.098 322.961,331.017 334.927,324.200 340.826 C 314.937 348.841,299.215 360.400,297.577 360.400 C 297.369 360.400,297.200 360.580,297.200 360.800 C 297.200 361.020,297.046 361.200,296.857 361.200 C 296.669 361.200,294.914 362.122,292.957 363.250 C 285.364 367.625,277.197 371.571,268.210 375.207 C 264.852 376.566,254.467 380.059,250.900 381.029 C 249.745 381.343,247.765 381.881,246.500 382.225 C 245.235 382.569,243.300 383.037,242.200 383.266 C 241.100 383.494,239.480 383.845,238.600 384.045 C 219.571 388.379,193.708 389.148,172.400 386.013 C 165.991 385.071,158.072 383.477,153.400 382.191 C 152.080 381.828,150.280 381.358,149.400 381.148 C 148.520 380.938,146.720 380.409,145.400 379.973 C 144.080 379.538,142.100 378.900,141.000 378.557 C 139.900 378.213,138.640 377.786,138.200 377.608 C 137.760 377.429,135.600 376.617,133.400 375.804 C 131.200 374.990,128.680 374.000,127.800 373.604 C 126.920 373.207,125.087 372.417,123.726 371.847 C 120.332 370.427,110.242 365.322,107.800 363.790 C 106.700 363.100,105.530 362.416,105.200 362.270 C 104.524 361.971,104.676 362.066,98.407 358.044 C 81.227 347.022,66.325 333.387,52.168 315.736 C 49.480 312.384,43.829 304.288,41.411 300.326 C 39.728 297.568,36.844 292.725,36.096 291.400 C 35.228 289.863,29.100 277.448,28.396 275.800 C 28.208 275.360,27.754 274.280,27.386 273.400 C 27.019 272.520,26.562 271.440,26.370 271.000 C 25.683 269.420,24.317 265.756,23.537 263.400 C 23.100 262.080,22.588 260.640,22.398 260.200 C 21.831 258.881,20.174 253.276,19.028 248.800 C 18.437 246.490,17.775 243.970,17.558 243.200 C 17.340 242.430,16.981 240.810,16.760 239.600 C 16.539 238.390,16.201 236.590,16.009 235.600 C 15.816 234.610,15.457 232.360,15.211 230.600 C 14.964 228.840,14.603 226.500,14.408 225.400 C 11.830 210.840,12.525 184.505,15.966 166.400 C 17.144 160.206,18.724 153.493,20.063 149.000 C 21.112 145.478,23.922 136.863,24.368 135.800 C 24.553 135.360,25.020 134.190,25.407 133.200 C 25.793 132.210,26.456 130.613,26.880 129.650 C 27.304 128.688,28.006 127.000,28.440 125.899 C 29.336 123.626,33.891 114.398,36.190 110.200 C 39.083 104.916,48.156 90.798,49.172 90.000 C 49.312 89.890,50.140 88.810,51.013 87.600 C 62.883 71.146,87.199 49.440,104.460 39.889 C 105.483 39.323,107.020 38.418,107.876 37.878 C 110.947 35.940,125.907 28.827,131.200 26.789 C 134.170 25.645,136.960 24.563,137.400 24.383 C 137.840 24.204,139.190 23.761,140.400 23.400 C 141.610 23.039,142.960 22.595,143.400 22.415 C 144.872 21.812,148.484 20.800,149.166 20.800 C 149.537 20.800,150.011 20.653,150.220 20.473 C 150.429 20.293,151.500 19.940,152.600 19.689 C 158.914 18.247,160.228 17.949,162.500 17.445 C 163.875 17.140,166.350 16.679,168.000 16.420 C 169.650 16.162,171.990 15.783,173.200 15.579 C 182.507 14.009,197.930 13.346,210.000 13.997 M124.667 113.067 C 124.219 113.514,124.369 115.228,124.900 115.731 C 125.175 115.991,126.660 117.283,128.200 118.602 C 129.740 119.921,131.090 121.090,131.200 121.200 C 131.310 121.310,132.390 122.210,133.600 123.199 C 134.810 124.188,136.236 125.358,136.770 125.799 C 140.405 128.802,143.245 131.879,144.262 133.918 L 145.400 136.200 145.507 212.500 L 145.614 288.800 180.907 288.781 C 200.318 288.770,217.910 288.599,220.000 288.400 C 224.064 288.014,228.891 287.374,230.200 287.049 C 230.640 286.940,232.440 286.547,234.200 286.177 C 252.220 282.382,266.390 271.981,271.768 258.600 C 272.387 257.060,273.041 255.440,273.221 255.000 C 273.594 254.092,274.542 249.553,275.227 245.400 C 275.728 242.362,275.516 233.956,274.854 230.600 C 274.112 226.843,273.516 224.600,273.158 224.220 C 272.961 224.011,272.800 223.619,272.800 223.348 C 272.800 217.367,259.835 203.510,250.800 199.836 C 249.810 199.434,248.640 198.946,248.200 198.754 C 246.856 198.165,239.654 196.400,238.595 196.400 C 236.478 196.400,237.586 195.510,241.400 194.148 C 255.297 189.184,264.781 178.413,267.418 164.600 C 268.452 159.183,267.703 145.570,266.294 144.160 C 266.132 143.999,266.000 143.543,266.000 143.147 C 266.000 140.589,260.628 131.478,256.910 127.729 C 251.068 121.840,241.311 116.832,231.800 114.841 C 230.700 114.611,228.936 114.233,227.880 114.001 C 223.081 112.945,125.669 112.064,124.667 113.067 M215.635 140.184 C 217.706 140.506,220.120 140.965,221.000 141.205 C 242.230 146.995,242.511 176.012,221.400 182.509 C 215.563 184.306,214.249 184.400,195.076 184.400 L 176.800 184.400 176.800 162.000 L 176.800 139.600 194.335 139.600 C 207.729 139.600,212.759 139.738,215.635 140.184 M221.000 211.925 C 221.880 212.154,223.950 212.636,225.600 212.996 C 227.250 213.356,228.960 213.804,229.400 213.990 C 229.840 214.176,231.054 214.660,232.099 215.064 C 233.143 215.469,233.998 215.935,233.999 216.100 C 233.999 216.265,234.191 216.400,234.424 216.400 C 235.943 216.400,240.787 221.441,242.112 224.400 C 243.450 227.391,243.554 227.711,243.985 230.173 C 246.483 244.456,239.606 256.269,226.800 259.689 C 217.824 262.086,212.824 262.481,193.400 262.329 L 177.000 262.200 176.897 236.662 L 176.794 211.124 198.097 211.316 C 210.907 211.432,220.038 211.674,221.000 211.925 " stroke="none" fill="#fcfafa" fill-rule="evenodd"></path><path id="path1" d="M185.600 14.842 C 179.529 15.307,170.786 16.399,166.900 17.179 C 165.745 17.410,163.855 17.785,162.700 18.011 C 158.657 18.802,147.945 21.448,146.600 21.988 C 146.160 22.165,143.730 22.977,141.200 23.793 C 129.661 27.517,115.441 33.982,104.822 40.335 C 99.197 43.699,89.139 50.435,88.000 51.600 C 87.890 51.713,86.720 52.601,85.400 53.576 C 84.080 54.550,82.910 55.454,82.800 55.585 C 82.690 55.716,80.890 57.245,78.800 58.982 C 59.663 74.887,40.492 100.264,30.288 123.200 C 29.945 123.970,29.139 125.770,28.497 127.200 C 27.855 128.630,26.654 131.600,25.829 133.800 C 25.004 136.000,24.180 138.160,23.998 138.600 C 23.817 139.040,23.358 140.390,22.979 141.600 C 22.601 142.810,22.155 144.160,21.990 144.600 C 21.824 145.040,21.379 146.570,21.000 148.000 C 20.621 149.430,20.171 150.960,20.000 151.400 C 19.828 151.840,19.375 153.640,18.993 155.400 C 18.610 157.160,18.162 158.960,17.996 159.400 C 17.830 159.840,17.389 161.910,17.015 164.000 C 16.641 166.090,16.180 168.610,15.990 169.600 C 13.066 184.848,12.893 211.191,15.595 229.800 C 16.289 234.579,18.160 243.638,19.374 248.100 C 19.718 249.365,20.264 251.375,20.586 252.566 C 21.225 254.927,23.442 261.717,23.992 263.000 C 24.181 263.440,24.815 265.150,25.400 266.800 C 26.520 269.957,26.558 270.051,28.177 273.712 C 28.740 274.983,29.200 276.114,29.200 276.224 C 29.200 276.570,34.705 287.645,36.632 291.175 C 40.395 298.069,48.435 310.200,53.085 316.000 C 55.883 319.491,57.077 320.941,57.865 321.809 C 58.269 322.254,59.860 324.045,61.400 325.790 C 67.292 332.464,75.495 340.180,84.091 347.131 C 86.558 349.126,94.859 355.185,96.800 356.408 C 97.130 356.615,98.030 357.199,98.800 357.704 C 99.570 358.209,101.100 359.142,102.200 359.777 C 103.300 360.411,104.290 361.040,104.400 361.174 C 104.510 361.307,105.050 361.634,105.600 361.901 C 106.150 362.168,107.680 363.022,109.000 363.798 C 112.006 365.568,122.538 370.778,126.000 372.208 C 127.430 372.799,129.320 373.596,130.200 373.978 C 131.080 374.361,132.430 374.900,133.200 375.177 C 133.970 375.454,134.960 375.824,135.400 375.998 C 135.840 376.173,137.100 376.618,138.200 376.989 C 139.300 377.359,140.560 377.803,141.000 377.975 C 141.778 378.279,145.373 379.371,147.800 380.041 C 148.460 380.223,149.887 380.648,150.971 380.986 C 152.055 381.324,153.273 381.600,153.677 381.600 C 154.080 381.600,154.723 381.766,155.105 381.969 C 155.487 382.172,157.330 382.628,159.200 382.982 C 161.070 383.337,163.230 383.786,164.000 383.980 C 165.910 384.463,169.988 385.159,173.600 385.620 C 175.250 385.830,178.310 386.222,180.400 386.491 C 185.496 387.146,213.972 387.145,219.400 386.489 C 228.952 385.336,232.977 384.730,236.000 383.992 C 239.817 383.060,243.088 382.398,243.876 382.399 C 244.358 382.400,244.864 382.220,245.000 382.000 C 245.136 381.780,245.655 381.600,246.152 381.600 C 246.650 381.600,247.855 381.349,248.829 381.042 C 249.803 380.735,251.950 380.085,253.600 379.596 C 257.161 378.542,263.471 376.489,264.600 376.016 C 265.040 375.832,266.057 375.393,266.860 375.041 C 267.664 374.688,268.573 374.400,268.880 374.400 C 269.188 374.400,269.611 374.249,269.820 374.064 C 270.029 373.879,270.830 373.486,271.600 373.190 C 275.114 371.839,285.624 366.764,290.801 363.918 C 299.657 359.049,312.878 349.890,320.194 343.555 C 326.426 338.159,334.825 330.091,338.202 326.256 C 338.423 326.005,339.683 324.540,341.002 323.000 C 342.321 321.460,343.499 320.110,343.621 320.000 C 344.293 319.391,351.203 310.225,352.940 307.639 C 354.062 305.967,355.084 304.510,355.211 304.400 C 355.916 303.788,362.386 293.012,364.097 289.600 C 364.593 288.610,365.089 287.710,365.200 287.600 C 365.581 287.219,368.800 280.446,368.800 280.024 C 368.800 279.791,368.980 279.600,369.200 279.600 C 369.420 279.600,369.600 279.328,369.600 278.995 C 369.600 278.662,369.773 278.077,369.985 277.695 C 370.536 276.701,372.400 272.420,372.400 272.149 C 372.400 272.023,372.670 271.309,373.000 270.560 C 373.330 269.812,373.857 268.615,374.171 267.900 C 374.936 266.159,378.626 255.086,379.421 252.145 C 379.769 250.855,380.412 248.360,380.849 246.600 C 381.286 244.840,381.802 242.770,381.996 242.000 C 382.310 240.753,382.694 238.786,383.986 231.800 C 384.748 227.680,385.241 224.060,385.674 219.400 C 386.323 212.435,386.560 191.355,386.041 186.800 C 385.803 184.710,385.421 181.200,385.193 179.000 C 384.239 169.816,382.159 159.092,379.605 150.200 C 379.416 149.540,379.054 148.280,378.802 147.400 C 377.789 143.869,374.176 133.693,372.958 130.940 C 372.651 130.246,372.400 129.577,372.400 129.451 C 372.400 128.834,363.750 110.883,363.219 110.400 C 363.099 110.290,362.804 109.840,362.563 109.400 C 359.435 103.666,357.619 100.697,357.100 100.467 C 356.935 100.393,356.800 100.177,356.800 99.986 C 356.800 99.692,352.329 93.012,351.321 91.800 C 351.138 91.580,350.277 90.410,349.409 89.200 C 347.959 87.181,344.895 83.276,344.386 82.800 C 344.269 82.690,343.771 82.077,343.279 81.437 C 338.638 75.395,324.440 61.374,317.000 55.485 C 316.780 55.311,315.160 54.087,313.400 52.765 C 311.640 51.443,309.899 50.115,309.532 49.812 C 309.164 49.510,308.503 49.069,308.063 48.834 C 307.623 48.598,307.023 48.179,306.731 47.903 C 306.139 47.343,300.539 43.570,299.600 43.099 C 299.270 42.933,296.959 41.552,294.463 40.030 C 290.779 37.781,278.398 31.386,275.000 29.976 C 274.560 29.793,273.390 29.290,272.400 28.858 C 247.206 17.860,214.718 12.614,185.600 14.842 M222.400 112.702 C 227.837 113.391,231.785 114.026,232.800 114.374 C 233.350 114.563,234.880 115.020,236.200 115.390 C 237.520 115.759,239.005 116.227,239.500 116.431 C 239.995 116.634,240.805 116.956,241.300 117.147 C 249.960 120.485,259.321 127.967,262.628 134.194 C 262.863 134.637,263.516 135.822,264.079 136.827 C 265.320 139.042,267.600 145.608,267.600 146.967 C 267.600 147.507,267.785 148.435,268.011 149.029 C 268.576 150.514,268.553 162.436,267.981 164.954 C 264.635 179.677,256.644 188.651,241.400 194.805 C 240.960 194.982,240.240 195.255,239.800 195.412 C 239.203 195.624,239.659 195.849,241.600 196.297 C 257.438 199.959,269.572 210.486,273.761 224.200 C 274.165 225.520,274.641 227.050,274.819 227.600 C 277.314 235.277,276.019 250.639,272.161 259.111 C 271.633 260.272,271.200 261.320,271.200 261.439 C 271.200 263.612,261.926 274.071,257.343 277.066 C 256.054 277.908,254.910 278.705,254.800 278.836 C 254.593 279.083,246.416 283.077,245.000 283.624 C 244.560 283.793,243.210 284.242,242.000 284.621 C 240.790 284.999,239.440 285.450,239.000 285.622 C 238.560 285.795,236.760 286.232,235.000 286.595 C 233.240 286.958,231.170 287.417,230.400 287.615 C 224.968 289.010,219.173 289.200,182.009 289.200 L 145.200 289.200 145.200 214.177 C 145.200 161.043,145.072 138.607,144.760 137.277 C 143.735 132.901,142.264 131.125,133.826 124.074 C 130.512 121.305,127.710 118.940,127.600 118.819 C 127.490 118.699,126.545 117.913,125.500 117.073 C 123.506 115.471,122.941 113.619,124.094 112.466 C 124.699 111.861,217.522 112.084,222.400 112.702 M177.200 162.000 L 177.200 184.000 194.003 184.000 C 216.399 184.000,220.584 183.406,227.101 179.298 C 237.921 172.479,239.746 156.540,230.736 147.538 C 224.319 141.127,218.681 140.000,193.019 140.000 L 177.200 140.000 177.200 162.000 M177.297 236.675 L 177.400 261.400 193.800 261.523 C 212.681 261.664,221.103 261.140,225.000 259.582 C 225.440 259.406,226.300 259.154,226.911 259.021 C 233.557 257.576,240.451 251.377,242.504 245.000 C 244.512 238.759,244.572 233.870,242.716 227.600 C 240.723 220.868,235.312 216.099,227.200 213.927 C 221.356 212.363,220.542 212.311,198.697 212.129 L 177.194 211.950 177.297 236.675 " stroke="none" fill="#ec1c24" fill-rule="evenodd"></path><path id="path2" d="M124.262 112.700 C 124.094 112.972,156.254 112.969,200.000 112.695 C 209.130 112.638,195.866 112.548,170.524 112.495 C 145.182 112.443,124.364 112.535,124.262 112.700 M209.505 184.283 C 210.002 184.379,210.722 184.375,211.105 184.275 C 211.487 184.175,211.080 184.096,210.200 184.101 C 209.320 184.105,209.007 184.187,209.505 184.283 M186.127 211.500 C 190.927 211.564,198.667 211.563,203.327 211.499 C 207.987 211.436,204.060 211.383,194.600 211.383 C 185.140 211.383,181.327 211.436,186.127 211.500 M275.731 239.000 C 275.733 240.540,275.805 241.121,275.892 240.291 C 275.979 239.461,275.977 238.201,275.889 237.491 C 275.800 236.781,275.729 237.460,275.731 239.000 M211.700 261.876 C 212.085 261.976,212.715 261.976,213.100 261.876 C 213.485 261.775,213.170 261.693,212.400 261.693 C 211.630 261.693,211.315 261.775,211.700 261.876 M215.100 289.082 C 215.595 289.178,216.405 289.178,216.900 289.082 C 217.395 288.987,216.990 288.909,216.000 288.909 C 215.010 288.909,214.605 288.987,215.100 289.082 M196.500 387.898 C 198.425 387.971,201.575 387.971,203.500 387.898 C 205.425 387.825,203.850 387.765,200.000 387.765 C 196.150 387.765,194.575 387.825,196.500 387.898 " stroke="none" fill="#f48c94" fill-rule="evenodd"></path><path id="path3" d="M195.100 14.299 C 197.795 14.368,202.205 14.368,204.900 14.299 C 207.595 14.230,205.390 14.173,200.000 14.173 C 194.610 14.173,192.405 14.230,195.100 14.299 M186.307 14.690 C 187.026 14.779,188.106 14.777,188.707 14.686 C 189.308 14.595,188.720 14.522,187.400 14.524 C 186.080 14.526,185.588 14.601,186.307 14.690 M211.507 14.690 C 212.226 14.779,213.306 14.777,213.907 14.686 C 214.508 14.595,213.920 14.522,212.600 14.524 C 211.280 14.526,210.788 14.601,211.507 14.690 M179.000 15.220 C 178.211 15.435,178.622 15.470,180.200 15.323 C 181.520 15.200,182.675 15.032,182.767 14.950 C 183.064 14.682,180.234 14.885,179.000 15.220 M217.233 14.950 C 217.325 15.032,218.480 15.200,219.800 15.323 C 221.378 15.470,221.789 15.435,221.000 15.220 C 219.766 14.885,216.936 14.682,217.233 14.950 M172.400 16.000 L 170.600 16.280 172.200 16.312 C 173.080 16.329,174.160 16.189,174.600 16.000 C 175.527 15.602,174.961 15.602,172.400 16.000 M225.400 15.997 C 226.164 16.328,229.114 16.555,228.767 16.256 C 228.675 16.177,227.700 16.009,226.600 15.882 C 225.313 15.733,224.885 15.774,225.400 15.997 M165.400 17.200 C 164.311 17.477,164.293 17.507,165.200 17.525 C 165.750 17.535,166.560 17.389,167.000 17.200 C 167.986 16.776,167.066 16.776,165.400 17.200 M233.000 17.200 C 233.440 17.389,234.160 17.538,234.600 17.532 C 235.243 17.523,235.204 17.457,234.400 17.200 C 233.032 16.762,231.981 16.762,233.000 17.200 M161.200 18.000 C 160.396 18.257,160.357 18.323,161.000 18.332 C 161.440 18.338,162.160 18.189,162.600 18.000 C 163.619 17.562,162.568 17.562,161.200 18.000 M237.200 17.994 C 237.530 18.211,238.235 18.391,238.767 18.394 C 240.051 18.402,239.725 18.175,238.000 17.858 C 237.015 17.677,236.778 17.718,237.200 17.994 M242.400 19.200 C 243.768 19.638,244.819 19.638,243.800 19.200 C 243.360 19.011,242.640 18.862,242.200 18.868 C 241.557 18.877,241.596 18.943,242.400 19.200 M152.800 20.000 C 151.976 20.264,151.941 20.326,152.600 20.354 C 153.040 20.373,153.670 20.213,154.000 20.000 C 154.701 19.547,154.214 19.547,152.800 20.000 M148.400 21.218 C 147.962 21.515,148.124 21.552,149.000 21.356 C 150.471 21.027,150.790 20.798,149.767 20.806 C 149.345 20.809,148.730 20.995,148.400 21.218 M131.400 27.014 C 130.400 27.496,130.366 27.551,131.200 27.348 C 132.333 27.071,133.607 26.421,133.000 26.430 C 132.780 26.433,132.060 26.696,131.400 27.014 M266.800 26.534 C 266.800 26.637,267.381 26.924,268.091 27.172 C 268.801 27.419,269.206 27.457,268.991 27.256 C 268.535 26.829,266.800 26.258,266.800 26.534 M272.000 28.631 C 272.000 28.901,274.078 29.656,274.276 29.457 C 274.367 29.367,273.892 29.101,273.220 28.867 C 272.549 28.633,272.000 28.527,272.000 28.631 M96.881 44.972 C 95.023 46.285,94.762 46.661,96.331 45.762 C 97.063 45.343,97.850 44.775,98.080 44.500 C 98.671 43.793,98.393 43.902,96.881 44.972 M303.800 45.807 C 304.240 46.166,304.960 46.635,305.400 46.851 L 306.200 47.244 305.400 46.593 C 304.960 46.234,304.240 45.765,303.800 45.549 L 303.000 45.156 303.800 45.807 M306.800 48.020 C 308.187 48.961,308.978 49.235,308.000 48.436 C 307.450 47.986,306.820 47.617,306.600 47.615 C 306.380 47.613,306.470 47.796,306.800 48.020 M309.233 49.716 C 309.325 49.780,310.120 50.333,311.000 50.945 L 312.600 52.058 311.215 50.829 C 310.453 50.153,309.658 49.600,309.448 49.600 C 309.238 49.600,309.142 49.652,309.233 49.716 M314.767 53.745 C 315.300 54.401,316.800 55.393,316.800 55.089 C 316.800 55.013,316.215 54.522,315.500 53.999 C 314.696 53.410,314.416 53.313,314.767 53.745 M80.843 56.823 C 80.317 57.261,79.971 57.705,80.075 57.808 C 80.179 57.912,80.686 57.548,81.201 56.998 C 82.324 55.804,82.162 55.725,80.843 56.823 M321.600 59.400 C 322.346 60.170,323.047 60.800,323.157 60.800 C 323.267 60.800,322.746 60.170,322.000 59.400 C 321.254 58.630,320.553 58.000,320.443 58.000 C 320.333 58.000,320.854 58.630,321.600 59.400 M67.993 68.700 L 63.800 73.000 68.187 68.800 C 70.600 66.490,72.655 64.555,72.754 64.500 C 72.853 64.445,72.765 64.400,72.560 64.400 C 72.354 64.400,70.299 66.335,67.993 68.700 M329.244 66.500 C 329.341 66.555,330.676 67.770,332.210 69.200 L 335.000 71.800 332.412 69.100 C 330.988 67.615,329.653 66.400,329.445 66.400 C 329.237 66.400,329.146 66.445,329.244 66.500 M60.378 76.700 L 59.000 78.200 60.500 76.822 C 61.896 75.538,62.184 75.200,61.878 75.200 C 61.812 75.200,61.137 75.875,60.378 76.700 M346.000 84.800 C 346.697 85.680,347.357 86.400,347.467 86.400 C 347.577 86.400,347.097 85.680,346.400 84.800 C 345.703 83.920,345.043 83.200,344.933 83.200 C 344.823 83.200,345.303 83.920,346.000 84.800 M50.400 88.800 C 49.703 89.680,49.223 90.400,49.333 90.400 C 49.443 90.400,50.103 89.680,50.800 88.800 C 51.497 87.920,51.977 87.200,51.867 87.200 C 51.757 87.200,51.097 87.920,50.400 88.800 M349.904 89.985 C 350.507 90.856,351.150 91.576,351.334 91.585 C 351.517 91.593,351.097 90.880,350.400 90.000 C 348.773 87.946,348.487 87.937,349.904 89.985 M351.860 92.408 C 352.507 93.563,354.507 96.400,354.676 96.400 C 354.948 96.400,353.625 94.306,352.528 93.000 C 351.974 92.340,351.673 92.073,351.860 92.408 M45.350 95.900 C 44.167 97.525,43.802 98.352,44.777 97.200 C 45.678 96.134,46.519 94.800,46.289 94.800 C 46.213 94.800,45.790 95.295,45.350 95.900 M38.200 107.200 C 37.859 107.860,37.669 108.400,37.779 108.400 C 37.889 108.400,38.259 107.860,38.600 107.200 C 38.941 106.540,39.131 106.000,39.021 106.000 C 38.911 106.000,38.541 106.540,38.200 107.200 M124.022 112.574 C 123.041 113.756,123.691 115.620,125.600 117.098 L 127.400 118.491 125.670 116.909 C 124.181 115.547,123.958 115.136,124.070 113.963 L 124.200 112.600 172.200 112.600 C 198.600 112.600,219.210 112.483,218.000 112.340 C 212.986 111.746,124.526 111.967,124.022 112.574 M224.400 113.200 C 224.950 113.376,225.760 113.520,226.200 113.520 C 226.833 113.520,226.792 113.454,226.000 113.200 C 225.450 113.024,224.640 112.880,224.200 112.880 C 223.567 112.880,223.608 112.946,224.400 113.200 M230.433 114.143 C 230.525 114.221,231.230 114.401,232.000 114.542 C 232.985 114.723,233.222 114.682,232.800 114.406 C 232.258 114.050,230.037 113.803,230.433 114.143 M250.200 121.865 C 251.222 122.833,253.733 124.471,253.127 123.774 C 252.757 123.348,251.857 122.659,251.127 122.243 C 250.397 121.827,249.980 121.657,250.200 121.865 M28.867 125.580 C 28.633 126.251,28.527 126.800,28.631 126.800 C 28.901 126.800,29.656 124.722,29.457 124.524 C 29.367 124.433,29.101 124.908,28.867 125.580 M255.400 126.000 C 256.259 126.880,257.052 127.600,257.162 127.600 C 257.272 127.600,256.659 126.880,255.800 126.000 C 254.941 125.120,254.148 124.400,254.038 124.400 C 253.928 124.400,254.541 125.120,255.400 126.000 M140.000 129.400 C 141.195 130.610,142.263 131.600,142.373 131.600 C 142.483 131.600,141.595 130.610,140.400 129.400 C 139.205 128.190,138.137 127.200,138.027 127.200 C 137.917 127.200,138.805 128.190,140.000 129.400 M260.011 130.640 C 260.024 131.063,262.400 134.273,262.400 133.868 C 262.400 133.717,261.860 132.848,261.200 131.937 C 260.540 131.025,260.005 130.442,260.011 130.640 M374.629 135.200 C 374.776 135.750,375.064 136.470,375.267 136.800 C 375.525 137.217,375.557 137.095,375.371 136.400 C 375.224 135.850,374.936 135.130,374.733 134.800 C 374.475 134.383,374.443 134.505,374.629 135.200 M144.468 136.000 C 144.488 137.039,145.118 138.746,145.132 137.800 C 145.138 137.360,144.989 136.640,144.800 136.200 C 144.589 135.710,144.461 135.632,144.468 136.000 M184.500 139.899 C 188.405 139.965,194.795 139.965,198.700 139.899 C 202.605 139.834,199.410 139.780,191.600 139.780 C 183.790 139.780,180.595 139.834,184.500 139.899 M176.987 162.000 C 176.987 174.210,177.038 179.205,177.100 173.100 C 177.162 166.995,177.162 157.005,177.100 150.900 C 177.038 144.795,176.987 149.790,176.987 162.000 M211.105 140.283 C 211.602 140.379,212.322 140.375,212.705 140.275 C 213.087 140.175,212.680 140.096,211.800 140.101 C 210.920 140.105,210.607 140.187,211.105 140.283 M214.705 140.683 C 215.202 140.779,215.922 140.775,216.305 140.675 C 216.687 140.575,216.280 140.496,215.400 140.501 C 214.520 140.505,214.207 140.587,214.705 140.683 M266.868 144.600 C 266.862 145.040,267.011 145.760,267.200 146.200 C 267.638 147.219,267.638 146.168,267.200 144.800 C 266.943 143.996,266.877 143.957,266.868 144.600 M267.882 150.200 C 268.009 151.300,268.177 152.275,268.256 152.367 C 268.555 152.714,268.328 149.764,267.997 149.000 C 267.774 148.485,267.733 148.913,267.882 150.200 M19.029 153.829 C 18.881 154.415,18.838 154.972,18.932 155.066 C 19.027 155.160,19.224 154.758,19.371 154.171 C 19.519 153.585,19.562 153.028,19.468 152.934 C 19.373 152.840,19.176 153.242,19.029 153.829 M17.952 158.313 C 17.821 159.107,17.879 159.481,18.101 159.259 C 18.303 159.057,18.401 158.467,18.319 157.946 C 18.193 157.145,18.137 157.202,17.952 158.313 M381.606 158.233 C 381.609 158.655,381.795 159.270,382.018 159.600 C 382.315 160.038,382.352 159.876,382.156 159.000 C 381.827 157.529,381.598 157.210,381.606 158.233 M236.528 162.000 C 236.528 163.430,236.601 164.015,236.689 163.300 C 236.778 162.585,236.778 161.415,236.689 160.700 C 236.601 159.985,236.528 160.570,236.528 162.000 M17.000 162.400 C 16.848 163.091,16.807 163.741,16.909 163.842 C 17.011 163.944,17.209 163.453,17.350 162.750 C 17.683 161.083,17.360 160.760,17.000 162.400 M268.054 162.400 C 268.019 162.950,267.896 163.850,267.783 164.400 L 267.577 165.400 268.007 164.415 C 268.243 163.874,268.365 162.974,268.278 162.415 L 268.120 161.400 268.054 162.400 M382.456 162.000 C 382.456 162.330,382.611 162.960,382.800 163.400 C 383.017 163.904,383.144 163.978,383.144 163.600 C 383.144 163.270,382.989 162.640,382.800 162.200 C 382.583 161.696,382.456 161.622,382.456 162.000 M15.022 173.422 C 14.872 174.225,14.828 174.962,14.926 175.060 C 15.024 175.157,15.227 174.581,15.378 173.778 C 15.528 172.975,15.572 172.238,15.474 172.140 C 15.376 172.043,15.173 172.619,15.022 173.422 M384.487 173.200 C 384.483 173.750,384.624 174.650,384.800 175.200 C 385.231 176.544,385.231 175.092,384.800 173.400 C 384.526 172.322,384.494 172.302,384.487 173.200 M14.070 181.800 C 14.026 182.900,13.906 184.520,13.802 185.400 L 13.612 187.000 14.022 185.400 C 14.248 184.520,14.368 182.900,14.290 181.800 L 14.148 179.800 14.070 181.800 M385.623 182.833 C 385.636 184.025,385.797 185.720,385.982 186.600 C 386.210 187.688,386.249 187.048,386.103 184.600 C 385.862 180.551,385.588 179.543,385.623 182.833 M215.300 183.476 C 215.685 183.576,216.315 183.576,216.700 183.476 C 217.085 183.375,216.770 183.293,216.000 183.293 C 215.230 183.293,214.915 183.375,215.300 183.476 M185.300 184.300 C 189.645 184.364,196.755 184.364,201.100 184.300 C 205.445 184.235,201.890 184.182,193.200 184.182 C 184.510 184.182,180.955 184.235,185.300 184.300 M13.375 201.000 C 13.375 206.940,13.431 209.426,13.499 206.524 C 13.567 203.622,13.567 198.762,13.499 195.724 C 13.431 192.686,13.375 195.060,13.375 201.000 M386.572 201.000 C 386.572 206.060,386.629 208.075,386.699 205.477 C 386.769 202.880,386.768 198.740,386.698 196.277 C 386.628 193.815,386.571 195.940,386.572 201.000 M238.811 195.585 C 238.026 196.081,239.120 196.544,240.471 196.286 C 241.287 196.131,241.263 196.102,240.276 196.054 C 239.640 196.024,239.260 195.827,239.400 195.600 C 239.704 195.107,239.571 195.104,238.811 195.585 M257.000 202.680 C 257.220 202.888,258.210 203.646,259.200 204.365 L 261.000 205.672 259.600 204.408 C 258.374 203.301,255.956 201.694,257.000 202.680 M263.583 208.100 C 264.564 209.145,265.419 210.000,265.483 210.000 C 265.784 210.000,265.466 209.641,263.700 207.983 L 261.800 206.200 263.583 208.100 M177.067 211.867 C 176.733 212.200,176.710 260.501,177.043 261.367 C 177.260 261.933,179.103 261.990,194.343 261.907 L 211.400 261.813 194.400 261.607 L 177.400 261.400 177.297 236.704 L 177.194 212.008 196.297 211.900 L 215.400 211.792 196.367 211.696 C 185.898 211.643,177.213 211.720,177.067 211.867 M221.800 212.800 C 223.492 213.231,224.944 213.231,223.600 212.800 C 223.050 212.624,222.150 212.483,221.600 212.487 C 220.702 212.494,220.722 212.526,221.800 212.800 M385.856 215.445 C 385.715 216.472,385.624 218.142,385.654 219.156 C 385.689 220.351,385.829 219.743,386.051 217.430 C 386.416 213.640,386.285 212.313,385.856 215.445 M228.800 214.333 C 229.130 214.536,229.850 214.824,230.400 214.971 C 231.095 215.157,231.217 215.125,230.800 214.867 C 230.470 214.664,229.750 214.376,229.200 214.229 C 228.505 214.043,228.383 214.075,228.800 214.333 M234.200 216.665 C 235.222 217.633,237.733 219.271,237.127 218.574 C 236.757 218.148,235.857 217.459,235.127 217.043 C 234.397 216.627,233.980 216.457,234.200 216.665 M14.124 219.400 C 14.126 220.720,14.201 221.212,14.290 220.493 C 14.379 219.774,14.377 218.694,14.286 218.093 C 14.195 217.492,14.122 218.080,14.124 219.400 M14.493 223.200 C 14.493 223.970,14.575 224.285,14.676 223.900 C 14.776 223.515,14.776 222.885,14.676 222.500 C 14.575 222.115,14.493 222.430,14.493 223.200 M242.229 226.000 C 242.376 226.550,242.664 227.270,242.867 227.600 C 243.125 228.017,243.157 227.895,242.971 227.200 C 242.824 226.650,242.536 225.930,242.333 225.600 C 242.075 225.183,242.043 225.305,242.229 226.000 M14.895 226.800 C 14.895 227.350,15.032 228.340,15.200 229.000 C 15.472 230.070,15.505 230.092,15.505 229.200 C 15.505 228.650,15.368 227.660,15.200 227.000 C 14.928 225.930,14.895 225.908,14.895 226.800 M384.600 227.600 C 384.446 228.510,384.404 229.338,384.507 229.440 C 384.610 229.543,384.813 228.877,384.960 227.960 C 385.107 227.043,385.148 226.215,385.053 226.120 C 384.958 226.024,384.754 226.690,384.600 227.600 M274.644 228.200 C 274.973 229.671,275.202 229.990,275.194 228.967 C 275.191 228.545,275.005 227.930,274.782 227.600 C 274.485 227.162,274.448 227.324,274.644 228.200 M243.268 229.800 C 243.262 230.240,243.411 230.960,243.600 231.400 C 244.038 232.419,244.038 231.368,243.600 230.000 C 243.343 229.196,243.277 229.157,243.268 229.800 M383.856 232.084 C 383.721 232.588,383.627 233.360,383.646 233.800 C 383.665 234.240,383.845 233.898,384.046 233.040 C 384.436 231.378,384.270 230.540,383.856 232.084 M15.868 233.400 C 16.171 235.377,16.402 235.714,16.394 234.167 C 16.391 233.525,16.216 232.730,16.005 232.400 C 15.745 231.991,15.701 232.310,15.868 233.400 M275.714 234.600 C 275.717 235.700,275.795 236.103,275.887 235.495 C 275.979 234.886,275.977 233.986,275.882 233.495 C 275.787 233.003,275.711 233.500,275.714 234.600 M382.622 238.622 C 382.472 239.425,382.428 240.162,382.526 240.260 C 382.624 240.357,382.827 239.781,382.978 238.978 C 383.128 238.175,383.172 237.438,383.074 237.340 C 382.976 237.243,382.773 237.819,382.622 238.622 M16.868 238.400 C 16.888 239.439,17.518 241.146,17.532 240.200 C 17.538 239.760,17.389 239.040,17.200 238.600 C 16.989 238.110,16.861 238.032,16.868 238.400 M243.429 241.429 C 243.281 242.015,243.238 242.572,243.332 242.666 C 243.427 242.760,243.624 242.358,243.771 241.771 C 243.919 241.185,243.962 240.628,243.868 240.534 C 243.773 240.440,243.576 240.842,243.429 241.429 M275.720 243.600 C 275.720 244.810,275.795 245.305,275.887 244.700 C 275.978 244.095,275.978 243.105,275.887 242.500 C 275.795 241.895,275.720 242.390,275.720 243.600 M381.849 242.215 C 381.712 242.573,381.615 243.166,381.634 243.533 C 381.653 243.900,381.827 243.669,382.021 243.020 C 382.398 241.758,382.265 241.133,381.849 242.215 M17.844 243.000 C 18.173 244.471,18.402 244.790,18.394 243.767 C 18.391 243.345,18.205 242.730,17.982 242.400 C 17.685 241.962,17.648 242.124,17.844 243.000 M242.444 245.244 C 242.198 245.951,242.066 246.600,242.152 246.685 C 242.238 246.771,242.509 246.262,242.756 245.556 C 243.002 244.849,243.134 244.200,243.048 244.115 C 242.962 244.029,242.691 244.538,242.444 245.244 M274.846 249.667 C 274.821 250.034,274.696 250.664,274.570 251.067 C 274.352 251.762,274.363 251.763,274.797 251.087 C 275.048 250.696,275.173 250.066,275.073 249.687 C 274.911 249.068,274.888 249.066,274.846 249.667 M379.849 250.215 C 379.712 250.573,379.615 251.166,379.634 251.533 C 379.653 251.900,379.827 251.669,380.021 251.020 C 380.398 249.758,380.265 249.133,379.849 250.215 M237.775 252.900 L 236.600 254.200 237.900 253.025 C 238.615 252.379,239.200 251.794,239.200 251.725 C 239.200 251.416,238.870 251.688,237.775 252.900 M235.000 255.050 C 234.281 255.662,234.134 255.905,234.633 255.657 C 235.366 255.293,236.741 253.976,236.349 254.014 C 236.267 254.022,235.660 254.488,235.000 255.050 M221.800 260.400 C 221.296 260.617,221.222 260.744,221.600 260.744 C 221.930 260.744,222.560 260.589,223.000 260.400 C 223.504 260.183,223.578 260.056,223.200 260.056 C 222.870 260.056,222.240 260.211,221.800 260.400 M214.100 261.487 C 214.705 261.578,215.695 261.578,216.300 261.487 C 216.905 261.395,216.410 261.320,215.200 261.320 C 213.990 261.320,213.495 261.395,214.100 261.487 M24.629 265.600 C 24.776 266.150,25.064 266.870,25.267 267.200 C 25.525 267.617,25.557 267.495,25.371 266.800 C 25.224 266.250,24.936 265.530,24.733 265.200 C 24.475 264.783,24.443 264.905,24.629 265.600 M263.389 271.700 L 260.600 274.600 263.500 271.811 C 266.194 269.220,266.583 268.800,266.289 268.800 C 266.228 268.800,264.923 270.105,263.389 271.700 M372.779 271.055 C 372.558 271.636,372.452 272.185,372.543 272.276 C 372.633 272.367,372.899 271.892,373.133 271.220 C 373.653 269.728,373.339 269.582,372.779 271.055 M366.400 285.200 C 365.951 286.080,365.674 286.800,365.784 286.800 C 365.894 286.800,366.351 286.080,366.800 285.200 C 367.249 284.320,367.526 283.600,367.416 283.600 C 367.306 283.600,366.849 284.320,366.400 285.200 M233.000 286.800 C 232.496 287.017,232.422 287.144,232.800 287.144 C 233.130 287.144,233.760 286.989,234.200 286.800 C 234.704 286.583,234.778 286.456,234.400 286.456 C 234.070 286.456,233.440 286.611,233.000 286.800 M228.800 287.600 C 227.416 287.891,227.414 287.895,228.600 287.941 C 229.260 287.967,230.070 287.813,230.400 287.600 C 231.066 287.170,230.845 287.170,228.800 287.600 M35.200 289.200 C 35.649 290.080,36.106 290.800,36.216 290.800 C 36.326 290.800,36.049 290.080,35.600 289.200 C 35.151 288.320,34.694 287.600,34.584 287.600 C 34.474 287.600,34.751 288.320,35.200 289.200 M219.000 288.800 C 217.653 289.041,217.590 289.091,218.600 289.114 C 219.260 289.129,220.610 288.997,221.600 288.820 C 223.215 288.533,223.256 288.501,222.000 288.507 C 221.230 288.511,219.880 288.642,219.000 288.800 M42.749 301.800 C 42.965 302.240,43.434 302.960,43.793 303.400 L 44.444 304.200 44.051 303.400 C 43.835 302.960,43.366 302.240,43.007 301.800 L 42.356 301.000 42.749 301.800 M354.264 305.600 C 353.874 306.260,353.621 306.800,353.702 306.800 C 353.783 306.800,354.249 306.260,354.737 305.600 C 355.225 304.940,355.477 304.400,355.298 304.400 C 355.119 304.400,354.654 304.940,354.264 305.600 M46.000 306.800 C 46.470 307.460,46.944 308.000,47.054 308.000 C 47.164 308.000,46.870 307.460,46.400 306.800 C 45.930 306.140,45.456 305.600,45.346 305.600 C 45.236 305.600,45.530 306.140,46.000 306.800 M349.200 312.800 C 348.503 313.680,348.023 314.400,348.133 314.400 C 348.243 314.400,348.903 313.680,349.600 312.800 C 350.297 311.920,350.777 311.200,350.667 311.200 C 350.557 311.200,349.897 311.920,349.200 312.800 M59.400 324.000 C 60.259 324.880,61.037 325.600,61.128 325.600 C 61.465 325.600,58.586 322.466,58.219 322.434 C 58.009 322.415,58.541 323.120,59.400 324.000 M62.400 327.400 C 63.146 328.170,63.847 328.800,63.957 328.800 C 64.067 328.800,63.546 328.170,62.800 327.400 C 62.054 326.630,61.353 326.000,61.243 326.000 C 61.133 326.000,61.654 326.630,62.400 327.400 M335.600 329.000 C 334.628 329.990,333.923 330.800,334.033 330.800 C 334.143 330.800,335.028 329.990,336.000 329.000 C 336.972 328.010,337.677 327.200,337.567 327.200 C 337.457 327.200,336.572 328.010,335.600 329.000 M332.175 332.500 L 331.000 333.800 332.300 332.625 C 333.015 331.979,333.600 331.394,333.600 331.325 C 333.600 331.016,333.270 331.288,332.175 332.500 M71.200 336.113 C 71.200 336.223,72.820 337.792,74.800 339.600 C 76.780 341.408,78.400 342.797,78.400 342.687 C 78.400 342.577,76.780 341.008,74.800 339.200 C 72.820 337.392,71.200 336.003,71.200 336.113 M327.178 337.500 L 325.800 339.000 327.300 337.622 C 328.696 336.338,328.984 336.000,328.678 336.000 C 328.612 336.000,327.937 336.675,327.178 337.500 M323.781 340.500 L 322.200 342.200 323.900 340.619 C 325.481 339.148,325.784 338.800,325.481 338.800 C 325.416 338.800,324.651 339.565,323.781 340.500 M320.494 343.212 C 319.775 343.865,319.337 344.400,319.519 344.400 C 319.701 344.400,320.368 343.860,321.000 343.200 C 322.470 341.665,322.186 341.672,320.494 343.212 M79.570 343.732 C 80.589 344.854,80.808 344.993,80.787 344.500 C 80.781 344.335,80.286 343.854,79.687 343.432 L 78.600 342.664 79.570 343.732 M312.500 349.625 C 311.345 350.511,310.400 351.324,310.400 351.431 C 310.400 351.538,311.390 350.878,312.600 349.965 C 314.510 348.523,315.091 347.981,314.700 348.007 C 314.645 348.010,313.655 348.738,312.500 349.625 M97.200 356.950 C 97.200 357.044,97.841 357.499,98.624 357.961 C 99.407 358.423,99.936 358.620,99.799 358.398 C 99.531 357.964,97.200 356.666,97.200 356.950 M100.400 358.939 C 100.400 359.210,104.037 361.297,104.209 361.124 C 104.290 361.043,103.466 360.477,102.378 359.866 C 101.290 359.254,100.400 358.837,100.400 358.939 M267.300 374.812 C 265.961 375.351,266.211 375.624,267.600 375.140 C 268.260 374.910,268.800 374.649,268.800 374.561 C 268.800 374.324,268.313 374.405,267.300 374.812 M149.400 380.800 C 149.840 380.989,150.470 381.144,150.800 381.144 C 151.178 381.144,151.104 381.017,150.600 380.800 C 150.160 380.611,149.530 380.456,149.200 380.456 C 148.822 380.456,148.896 380.583,149.400 380.800 M249.400 380.800 C 248.896 381.017,248.822 381.144,249.200 381.144 C 249.530 381.144,250.160 380.989,250.600 380.800 C 251.104 380.583,251.178 380.456,250.800 380.456 C 250.470 380.456,249.840 380.611,249.400 380.800 M157.000 382.800 C 157.440 382.989,158.160 383.138,158.600 383.132 C 159.243 383.123,159.204 383.057,158.400 382.800 C 157.032 382.362,155.981 382.362,157.000 382.800 M241.400 382.800 C 240.381 383.238,241.432 383.238,242.800 382.800 C 243.604 382.543,243.643 382.477,243.000 382.468 C 242.560 382.462,241.840 382.611,241.400 382.800 M161.633 383.743 C 161.725 383.821,162.430 384.001,163.200 384.142 C 164.185 384.323,164.422 384.282,164.000 384.006 C 163.458 383.650,161.237 383.403,161.633 383.743 M236.000 384.006 C 235.578 384.282,235.815 384.323,236.800 384.142 C 238.525 383.825,238.851 383.598,237.567 383.606 C 237.035 383.609,236.330 383.789,236.000 384.006 M166.800 384.800 C 167.350 384.976,168.160 385.120,168.600 385.120 C 169.233 385.120,169.192 385.054,168.400 384.800 C 167.850 384.624,167.040 384.480,166.600 384.480 C 165.967 384.480,166.008 384.546,166.800 384.800 M231.600 384.800 C 230.808 385.054,230.767 385.120,231.400 385.120 C 231.840 385.120,232.650 384.976,233.200 384.800 C 233.992 384.546,234.033 384.480,233.400 384.480 C 232.960 384.480,232.150 384.624,231.600 384.800 M172.833 385.744 C 172.925 385.823,173.990 385.989,175.200 386.112 C 176.569 386.251,177.098 386.208,176.600 385.996 C 175.833 385.670,172.489 385.447,172.833 385.744 M223.400 385.996 C 222.902 386.208,223.431 386.251,224.800 386.112 C 226.010 385.989,227.075 385.823,227.167 385.744 C 227.511 385.447,224.167 385.670,223.400 385.996 M179.633 386.550 C 179.725 386.632,180.880 386.800,182.200 386.923 C 183.778 387.070,184.189 387.035,183.400 386.820 C 182.166 386.485,179.336 386.282,179.633 386.550 M216.200 386.815 C 215.444 387.018,215.962 387.054,217.600 386.915 C 219.030 386.793,220.275 386.628,220.367 386.547 C 220.670 386.280,217.422 386.489,216.200 386.815 M194.500 387.499 C 197.525 387.567,202.475 387.567,205.500 387.499 C 208.525 387.431,206.050 387.375,200.000 387.375 C 193.950 387.375,191.475 387.431,194.500 387.499 " stroke="none" fill="#f46f74" fill-rule="evenodd"></path><path id="path4" d="M197.100 13.897 C 198.695 13.973,201.305 13.973,202.900 13.897 C 204.495 13.821,203.190 13.759,200.000 13.759 C 196.810 13.759,195.505 13.821,197.100 13.897 M183.600 14.409 C 182.794 14.583,183.644 14.623,185.600 14.501 C 187.470 14.385,189.075 14.225,189.167 14.145 C 189.464 13.887,185.042 14.096,183.600 14.409 M210.833 14.145 C 210.925 14.225,212.530 14.388,214.400 14.508 C 216.773 14.660,217.317 14.623,216.200 14.386 C 214.616 14.050,210.512 13.865,210.833 14.145 M174.705 15.483 C 175.202 15.579,175.922 15.575,176.305 15.475 C 176.687 15.375,176.280 15.296,175.400 15.301 C 174.520 15.305,174.207 15.387,174.705 15.483 M223.905 15.483 C 224.402 15.579,225.122 15.575,225.505 15.475 C 225.887 15.375,225.480 15.296,224.600 15.301 C 223.720 15.305,223.407 15.387,223.905 15.483 M168.000 16.400 C 167.208 16.654,167.167 16.720,167.800 16.720 C 168.240 16.720,169.050 16.576,169.600 16.400 C 170.392 16.146,170.433 16.080,169.800 16.080 C 169.360 16.080,168.550 16.224,168.000 16.400 M230.400 16.400 C 230.950 16.576,231.760 16.720,232.200 16.720 C 232.833 16.720,232.792 16.654,232.000 16.400 C 231.450 16.224,230.640 16.080,230.200 16.080 C 229.567 16.080,229.608 16.146,230.400 16.400 M240.600 18.400 C 241.040 18.589,241.670 18.744,242.000 18.744 C 242.378 18.744,242.304 18.617,241.800 18.400 C 241.360 18.211,240.730 18.056,240.400 18.056 C 240.022 18.056,240.096 18.183,240.600 18.400 M92.457 47.576 C 91.278 48.428,90.108 49.354,89.857 49.632 C 89.355 50.189,93.443 47.391,94.386 46.533 C 95.458 45.557,94.625 46.008,92.457 47.576 M75.578 61.100 L 74.200 62.600 75.700 61.222 C 77.096 59.938,77.384 59.600,77.078 59.600 C 77.012 59.600,76.337 60.275,75.578 61.100 M324.800 61.800 C 325.546 62.570,326.247 63.200,326.357 63.200 C 326.467 63.200,325.946 62.570,325.200 61.800 C 324.454 61.030,323.753 60.400,323.643 60.400 C 323.533 60.400,324.054 61.030,324.800 61.800 M67.593 68.700 L 63.400 73.000 67.700 68.807 C 70.065 66.501,72.000 64.566,72.000 64.507 C 72.000 64.218,71.487 64.706,67.593 68.700 M332.600 69.200 C 334.128 70.740,335.469 72.000,335.579 72.000 C 335.689 72.000,334.528 70.740,333.000 69.200 C 331.472 67.660,330.131 66.400,330.021 66.400 C 329.911 66.400,331.072 67.660,332.600 69.200 M60.020 76.579 L 58.240 78.600 60.201 76.714 C 61.279 75.677,62.080 74.767,61.981 74.693 C 61.881 74.619,60.999 75.467,60.020 76.579 M339.000 76.000 C 339.859 76.880,340.652 77.600,340.762 77.600 C 340.872 77.600,340.259 76.880,339.400 76.000 C 338.541 75.120,337.748 74.400,337.638 74.400 C 337.528 74.400,338.141 75.120,339.000 76.000 M344.796 82.794 C 345.490 83.671,346.267 84.518,346.523 84.676 C 346.778 84.834,346.293 84.116,345.445 83.081 C 344.597 82.047,343.820 81.200,343.718 81.200 C 343.616 81.200,344.101 81.918,344.796 82.794 M46.893 93.100 C 45.857 94.596,45.521 95.200,45.723 95.200 C 45.817 95.200,46.370 94.480,46.953 93.600 C 48.136 91.812,48.084 91.379,46.893 93.100 M124.154 113.377 C 124.032 113.694,124.003 114.279,124.089 114.677 C 124.187 115.128,124.324 114.912,124.454 114.100 C 124.671 112.738,124.530 112.396,124.154 113.377 M217.911 113.093 C 218.851 113.178,220.291 113.177,221.111 113.091 C 221.930 113.005,221.160 112.936,219.400 112.937 C 217.640 112.939,216.970 113.009,217.911 113.093 M227.600 114.000 C 228.968 114.438,230.019 114.438,229.000 114.000 C 228.560 113.811,227.840 113.662,227.400 113.668 C 226.757 113.677,226.796 113.743,227.600 114.000 M140.800 129.800 C 141.995 131.010,143.063 132.000,143.173 132.000 C 143.283 132.000,142.395 131.010,141.200 129.800 C 140.005 128.590,138.937 127.600,138.827 127.600 C 138.717 127.600,139.605 128.590,140.800 129.800 M259.200 130.400 C 259.897 131.280,260.557 132.000,260.667 132.000 C 260.777 132.000,260.297 131.280,259.600 130.400 C 258.903 129.520,258.243 128.800,258.133 128.800 C 258.023 128.800,258.503 129.520,259.200 130.400 M145.396 213.600 C 145.396 255.070,145.443 272.035,145.500 251.300 C 145.557 230.565,145.557 196.635,145.500 175.900 C 145.443 155.165,145.396 172.130,145.396 213.600 M208.112 139.895 C 209.164 139.977,210.784 139.976,211.712 139.892 C 212.640 139.808,211.780 139.741,209.800 139.742 C 207.820 139.743,207.060 139.812,208.112 139.895 M268.148 156.800 C 268.148 159.110,268.214 160.055,268.295 158.900 C 268.376 157.745,268.376 155.855,268.295 154.700 C 268.214 153.545,268.148 154.490,268.148 156.800 M236.244 157.000 C 236.573 158.471,236.802 158.790,236.794 157.767 C 236.791 157.345,236.605 156.730,236.382 156.400 C 236.085 155.962,236.048 156.124,236.244 157.000 M236.901 162.200 C 236.905 163.080,236.987 163.393,237.083 162.895 C 237.179 162.398,237.175 161.678,237.075 161.295 C 236.975 160.913,236.896 161.320,236.901 162.200 M16.229 164.629 C 16.081 165.215,16.038 165.772,16.132 165.866 C 16.227 165.960,16.424 165.558,16.571 164.971 C 16.719 164.385,16.762 163.828,16.668 163.734 C 16.573 163.640,16.376 164.042,16.229 164.629 M267.050 166.050 C 266.717 167.717,267.040 168.040,267.400 166.400 C 267.552 165.709,267.593 165.059,267.491 164.958 C 267.389 164.856,267.191 165.347,267.050 166.050 M236.446 166.067 C 236.421 166.434,236.296 167.064,236.170 167.467 C 235.952 168.162,235.963 168.163,236.397 167.487 C 236.648 167.096,236.773 166.466,236.673 166.087 C 236.511 165.468,236.488 165.466,236.446 166.067 M232.799 174.500 C 232.210 175.304,232.113 175.584,232.545 175.233 C 233.201 174.700,234.193 173.200,233.889 173.200 C 233.813 173.200,233.322 173.785,232.799 174.500 M260.799 180.100 C 260.210 180.904,260.113 181.184,260.545 180.833 C 261.201 180.300,262.193 178.800,261.889 178.800 C 261.813 178.800,261.322 179.385,260.799 180.100 M212.305 184.283 C 212.802 184.379,213.522 184.375,213.905 184.275 C 214.287 184.175,213.880 184.096,213.000 184.101 C 212.120 184.105,211.807 184.187,212.305 184.283 M13.328 187.200 C 13.328 188.630,13.401 189.215,13.489 188.500 C 13.578 187.785,13.578 186.615,13.489 185.900 C 13.401 185.185,13.328 185.770,13.328 187.200 M386.531 188.200 C 386.533 189.740,386.605 190.321,386.692 189.491 C 386.779 188.661,386.777 187.401,386.689 186.691 C 386.600 185.981,386.529 186.660,386.531 188.200 M252.800 188.049 C 251.406 189.271,251.405 189.272,252.688 188.419 C 253.396 187.948,254.082 187.391,254.212 187.181 C 254.597 186.557,254.277 186.754,252.800 188.049 M12.969 201.000 C 12.970 205.620,13.028 207.455,13.099 205.078 C 13.170 202.701,13.169 198.921,13.098 196.678 C 13.027 194.435,12.969 196.380,12.969 201.000 M386.961 200.800 C 386.961 204.210,387.022 205.605,387.097 203.900 C 387.172 202.195,387.172 199.405,387.097 197.700 C 387.022 195.995,386.961 197.390,386.961 200.800 M263.183 208.100 C 264.841 209.866,265.200 210.184,265.200 209.883 C 265.200 209.819,264.345 208.964,263.300 207.983 L 261.400 206.200 263.183 208.100 M386.531 213.400 C 386.533 214.940,386.605 215.521,386.692 214.691 C 386.779 213.861,386.777 212.601,386.689 211.891 C 386.600 211.181,386.529 211.860,386.531 213.400 M212.300 211.482 C 212.795 211.578,213.605 211.578,214.100 211.482 C 214.595 211.387,214.190 211.309,213.200 211.309 C 212.210 211.309,211.805 211.387,212.300 211.482 M217.233 211.744 C 217.325 211.823,218.300 211.991,219.400 212.118 C 220.687 212.267,221.115 212.226,220.600 212.003 C 219.836 211.672,216.886 211.445,217.233 211.744 M13.328 214.800 C 13.328 216.230,13.401 216.815,13.489 216.100 C 13.578 215.385,13.578 214.215,13.489 213.500 C 13.401 212.785,13.328 213.370,13.328 214.800 M267.215 212.600 C 267.217 212.820,267.586 213.450,268.036 214.000 C 268.579 214.664,268.715 214.731,268.440 214.200 C 267.766 212.895,267.212 212.172,267.215 212.600 M385.433 223.633 C 385.283 224.766,385.241 225.774,385.339 225.872 C 385.437 225.971,385.645 225.128,385.800 224.000 C 385.955 222.872,385.998 221.864,385.894 221.761 C 385.791 221.658,385.584 222.500,385.433 223.633 M14.028 223.233 C 14.044 223.985,14.212 224.960,14.403 225.400 C 14.626 225.915,14.667 225.487,14.518 224.200 C 14.244 221.822,13.989 221.319,14.028 223.233 M384.493 231.200 C 384.493 231.970,384.575 232.285,384.676 231.900 C 384.776 231.515,384.776 230.885,384.676 230.500 C 384.575 230.115,384.493 230.430,384.493 231.200 M244.151 236.000 C 244.151 238.530,244.216 239.565,244.296 238.300 C 244.375 237.035,244.375 234.965,244.296 233.700 C 244.216 232.435,244.151 233.470,244.151 236.000 M16.006 236.233 C 16.009 236.655,16.195 237.270,16.418 237.600 C 16.715 238.038,16.752 237.876,16.556 237.000 C 16.227 235.529,15.998 235.210,16.006 236.233 M275.000 246.000 C 274.846 246.910,274.804 247.738,274.907 247.840 C 275.010 247.943,275.213 247.277,275.360 246.360 C 275.507 245.443,275.548 244.615,275.453 244.520 C 275.358 244.424,275.154 245.090,275.000 246.000 M238.000 253.000 C 237.028 253.990,236.323 254.800,236.433 254.800 C 236.543 254.800,237.428 253.990,238.400 253.000 C 239.372 252.010,240.077 251.200,239.967 251.200 C 239.857 251.200,238.972 252.010,238.000 253.000 M177.144 262.104 C 177.311 262.272,185.448 262.361,195.224 262.304 L 213.000 262.200 194.920 262.000 C 184.976 261.890,176.977 261.937,177.144 262.104 M263.186 271.500 L 261.000 273.800 263.300 271.614 C 265.437 269.582,265.783 269.200,265.486 269.200 C 265.424 269.200,264.389 270.235,263.186 271.500 M235.000 286.000 C 234.496 286.217,234.422 286.344,234.800 286.344 C 235.130 286.344,235.760 286.189,236.200 286.000 C 236.704 285.783,236.778 285.656,236.400 285.656 C 236.070 285.656,235.440 285.811,235.000 286.000 M218.100 288.676 C 218.485 288.776,219.115 288.776,219.500 288.676 C 219.885 288.575,219.570 288.493,218.800 288.493 C 218.030 288.493,217.715 288.575,218.100 288.676 M163.130 289.100 C 172.662 289.160,188.142 289.160,197.530 289.100 C 206.919 289.040,199.120 288.991,180.200 288.991 C 161.280 288.991,153.599 289.040,163.130 289.100 M352.750 308.500 C 352.252 309.215,351.385 310.421,350.822 311.180 C 350.260 311.939,349.992 312.443,350.227 312.301 C 350.733 311.995,354.141 307.200,353.853 307.200 C 353.744 307.200,353.247 307.785,352.750 308.500 M50.800 314.000 C 51.497 314.880,52.157 315.600,52.267 315.600 C 52.377 315.600,51.897 314.880,51.200 314.000 C 50.503 313.120,49.843 312.400,49.733 312.400 C 49.623 312.400,50.103 313.120,50.800 314.000 M339.978 324.700 L 338.600 326.200 340.100 324.822 C 341.496 323.538,341.784 323.200,341.478 323.200 C 341.412 323.200,340.737 323.875,339.978 324.700 M60.800 326.125 C 60.800 326.194,61.385 326.779,62.100 327.425 L 63.400 328.600 62.225 327.300 C 61.130 326.088,60.800 325.816,60.800 326.125 M336.778 328.300 L 335.400 329.800 336.900 328.422 C 338.296 327.138,338.584 326.800,338.278 326.800 C 338.212 326.800,337.537 327.475,336.778 328.300 M327.600 337.400 C 326.628 338.390,325.923 339.200,326.033 339.200 C 326.143 339.200,327.028 338.390,328.000 337.400 C 328.972 336.410,329.677 335.600,329.567 335.600 C 329.457 335.600,328.572 336.410,327.600 337.400 M309.800 352.032 C 307.427 353.826,307.108 354.332,309.333 352.772 C 311.014 351.594,311.929 350.775,311.524 350.811 C 311.456 350.817,310.680 351.367,309.800 352.032 M263.800 376.614 C 262.800 377.096,262.766 377.151,263.600 376.948 C 264.733 376.671,266.007 376.021,265.400 376.030 C 265.180 376.033,264.460 376.296,263.800 376.614 M159.200 383.582 C 159.530 383.805,160.145 383.991,160.567 383.994 C 161.590 384.002,161.271 383.773,159.800 383.444 C 158.924 383.248,158.762 383.285,159.200 383.582 M176.705 386.683 C 177.202 386.779,177.922 386.775,178.305 386.675 C 178.687 386.575,178.280 386.496,177.400 386.501 C 176.520 386.505,176.207 386.587,176.705 386.683 M221.905 386.683 C 222.402 386.779,223.122 386.775,223.505 386.675 C 223.887 386.575,223.480 386.496,222.600 386.501 C 221.720 386.505,221.407 386.587,221.905 386.683 M186.800 387.614 C 188.230 387.775,190.300 387.900,191.400 387.892 C 193.289 387.879,193.255 387.862,190.800 387.586 C 189.370 387.425,187.300 387.300,186.200 387.308 C 184.311 387.321,184.345 387.338,186.800 387.614 M209.000 387.600 L 206.600 387.866 208.600 387.889 C 209.700 387.902,211.680 387.779,213.000 387.615 L 215.400 387.318 213.400 387.326 C 212.300 387.331,210.320 387.454,209.000 387.600 " stroke="none" fill="#f49c9c" fill-rule="evenodd"></path></g></svg>